<?xml version="1.0" encoding="utf-8"?>
<!-- Generator: Adobe Illustrator 27.0.0, SVG Export Plug-In . SVG Version: 6.00 Build 0)  -->
<svg version="1.1" baseProfile="basic" id="Layer_1"
	 xmlns="http://www.w3.org/2000/svg" xmlns:xlink="http://www.w3.org/1999/xlink" x="0px" y="0px" viewBox="0 0 768 768"
	 xml:space="preserve">
<style type="text/css">
	.st0{fill:#FFFFFF;stroke:#000000;stroke-width:4;stroke-miterlimit:10;}
	.st1{fill:#FFFFFF;stroke:#000000;stroke-miterlimit:10;}
	.st2{fill:none;stroke:#000000;stroke-width:4;stroke-miterlimit:10;}
</style>
<rect x="18" y="341" class="st0" width="128" height="86"/>
<path class="st1" d="M157.3,0"/>
<line class="st2" x1="56.92" y1="461.84" x2="56.92" y2="768.34"/>
<path class="st2" d="M202.12,461.84"/>
<path class="st2" d="M202.5,306.5"/>
<line class="st2" x1="57.3" y1="0" x2="57.3" y2="306.5"/>
<line class="st0" x1="710.5" y1="768" x2="710.5" y2="0"/>
<path class="st0" d="M710.5,342.35"/>
<path class="st0" d="M202.41,342.35"/>
<path class="st0" d="M710,428"/>
<path class="st0" d="M202,428"/>
<g>
	<polyline class="st0" points="57.3,38.57 286.87,38.57 348.61,38.57 710.5,38.57 	"/>
	<circle class="st0" cx="151.17" cy="38.5" r="16.5"/>
	<circle class="st0" cx="197.83" cy="38.5" r="16.5"/>
	<circle class="st0" cx="244.5" cy="38.5" r="16.5"/>
	<circle class="st0" cx="291.17" cy="38.5" r="16.5"/>
	<circle class="st0" cx="337.83" cy="38.5" r="16.5"/>
	<circle class="st0" cx="384.5" cy="38.5" r="16.5"/>
	<circle class="st0" cx="431.17" cy="38.5" r="16.5"/>
	<circle class="st0" cx="477.83" cy="38.5" r="16.5"/>
	<circle class="st0" cx="524.5" cy="38.5" r="16.5"/>
	<circle class="st0" cx="571.17" cy="38.5" r="16.5"/>
	<circle class="st0" cx="617.83" cy="38.5" r="16.5"/>
	<circle class="st0" cx="104.5" cy="38.5" r="16.5"/>
	<circle class="st0" cx="664.5" cy="38.5" r="16.5"/>
</g>
<g>
	<polyline class="st0" points="57.75,91.78 287.32,91.78 349.05,91.78 710.95,91.78 	"/>
	<circle class="st0" cx="151.61" cy="91.71" r="16.5"/>
	<circle class="st0" cx="198.28" cy="91.71" r="16.5"/>
	<circle class="st0" cx="244.95" cy="91.71" r="16.5"/>
	<circle class="st0" cx="291.61" cy="91.71" r="16.5"/>
	<circle class="st0" cx="338.28" cy="91.71" r="16.5"/>
	<circle class="st0" cx="384.95" cy="91.71" r="16.5"/>
	<circle class="st0" cx="431.61" cy="91.71" r="16.5"/>
	<circle class="st0" cx="478.28" cy="91.71" r="16.5"/>
	<circle class="st0" cx="524.95" cy="91.71" r="16.5"/>
	<circle class="st0" cx="571.61" cy="91.71" r="16.5"/>
	<circle class="st0" cx="618.28" cy="91.71" r="16.5"/>
	<circle class="st0" cx="104.95" cy="91.71" r="16.5"/>
	<circle class="st0" cx="664.95" cy="91.71" r="16.5"/>
</g>
<g>
	<polyline class="st0" points="58.75,144.99 288.32,144.99 350.05,144.99 711.95,144.99 	"/>
	<circle class="st0" cx="152.61" cy="144.92" r="16.5"/>
	<circle class="st0" cx="199.28" cy="144.92" r="16.5"/>
	<circle class="st0" cx="245.95" cy="144.92" r="16.5"/>
	<circle class="st0" cx="292.61" cy="144.92" r="16.5"/>
	<circle class="st0" cx="339.28" cy="144.92" r="16.5"/>
	<circle class="st0" cx="385.95" cy="144.92" r="16.5"/>
	<circle class="st0" cx="432.61" cy="144.92" r="16.5"/>
	<circle class="st0" cx="479.28" cy="144.92" r="16.5"/>
	<circle class="st0" cx="525.95" cy="144.92" r="16.5"/>
	<circle class="st0" cx="572.61" cy="144.92" r="16.5"/>
	<circle class="st0" cx="619.28" cy="144.92" r="16.5"/>
	<circle class="st0" cx="105.95" cy="144.92" r="16.5"/>
	<circle class="st0" cx="665.95" cy="144.92" r="16.5"/>
</g>
<g>
	<polyline class="st0" points="57.75,198.2 287.32,198.2 349.05,198.2 710.95,198.2 	"/>
	<circle class="st0" cx="151.61" cy="198.14" r="16.5"/>
	<circle class="st0" cx="198.28" cy="198.14" r="16.5"/>
	<circle class="st0" cx="244.95" cy="198.14" r="16.5"/>
	<circle class="st0" cx="291.61" cy="198.14" r="16.5"/>
	<circle class="st0" cx="338.28" cy="198.14" r="16.5"/>
	<circle class="st0" cx="384.95" cy="198.14" r="16.5"/>
	<circle class="st0" cx="431.61" cy="198.14" r="16.5"/>
	<circle class="st0" cx="478.28" cy="198.14" r="16.5"/>
	<circle class="st0" cx="524.95" cy="198.14" r="16.5"/>
	<circle class="st0" cx="571.61" cy="198.14" r="16.5"/>
	<circle class="st0" cx="618.28" cy="198.14" r="16.5"/>
	<circle class="st0" cx="104.95" cy="198.14" r="16.5"/>
	<circle class="st0" cx="664.95" cy="198.14" r="16.5"/>
</g>
<g>
	<polyline class="st0" points="57.75,251.41 287.32,251.41 349.05,251.41 710.95,251.41 	"/>
	<circle class="st0" cx="151.61" cy="251.35" r="16.5"/>
	<circle class="st0" cx="198.28" cy="251.35" r="16.5"/>
	<circle class="st0" cx="244.95" cy="251.35" r="16.5"/>
	<circle class="st0" cx="291.61" cy="251.35" r="16.5"/>
	<circle class="st0" cx="338.28" cy="251.35" r="16.5"/>
	<circle class="st0" cx="384.95" cy="251.35" r="16.5"/>
	<circle class="st0" cx="431.61" cy="251.35" r="16.5"/>
	<circle class="st0" cx="478.28" cy="251.35" r="16.5"/>
	<circle class="st0" cx="524.95" cy="251.35" r="16.5"/>
	<circle class="st0" cx="571.61" cy="251.35" r="16.5"/>
	<circle class="st0" cx="618.28" cy="251.35" r="16.5"/>
	<circle class="st0" cx="104.95" cy="251.35" r="16.5"/>
	<circle class="st0" cx="664.95" cy="251.35" r="16.5"/>
</g>
<g>
	<polyline class="st0" points="57.75,304.63 287.32,304.63 349.05,304.63 710.95,304.63 	"/>
	<circle class="st0" cx="151.61" cy="304.56" r="16.5"/>
	<circle class="st0" cx="198.28" cy="304.56" r="16.5"/>
	<circle class="st0" cx="244.95" cy="304.56" r="16.5"/>
	<circle class="st0" cx="291.61" cy="304.56" r="16.5"/>
	<circle class="st0" cx="338.28" cy="304.56" r="16.5"/>
	<circle class="st0" cx="384.95" cy="304.56" r="16.5"/>
	<circle class="st0" cx="431.61" cy="304.56" r="16.5"/>
	<circle class="st0" cx="478.28" cy="304.56" r="16.5"/>
	<circle class="st0" cx="524.95" cy="304.56" r="16.5"/>
	<circle class="st0" cx="571.61" cy="304.56" r="16.5"/>
	<circle class="st0" cx="618.28" cy="304.56" r="16.5"/>
	<circle class="st0" cx="104.95" cy="304.56" r="16.5"/>
	<circle class="st0" cx="664.95" cy="304.56" r="16.5"/>
</g>
<polyline class="st0" points="57.75,357.84 287.32,357.84 349.05,357.84 710.95,357.84 "/>
<circle class="st0" cx="198.28" cy="357.77" r="16.5"/>
<circle class="st0" cx="244.95" cy="357.77" r="16.5"/>
<circle class="st0" cx="291.61" cy="357.77" r="16.5"/>
<circle class="st0" cx="338.28" cy="357.77" r="16.5"/>
<circle class="st0" cx="384.95" cy="357.77" r="16.5"/>
<circle class="st0" cx="431.61" cy="357.77" r="16.5"/>
<circle class="st0" cx="478.28" cy="357.77" r="16.5"/>
<circle class="st0" cx="524.95" cy="357.77" r="16.5"/>
<circle class="st0" cx="571.61" cy="357.77" r="16.5"/>
<circle class="st0" cx="618.28" cy="357.77" r="16.5"/>
<circle class="st0" cx="664.95" cy="357.77" r="16.5"/>
<polyline class="st0" points="57.75,411.05 287.32,411.05 349.05,411.05 710.95,411.05 "/>
<circle class="st0" cx="198.28" cy="410.99" r="16.5"/>
<circle class="st0" cx="244.95" cy="410.99" r="16.5"/>
<circle class="st0" cx="291.61" cy="410.99" r="16.5"/>
<circle class="st0" cx="338.28" cy="410.99" r="16.5"/>
<circle class="st0" cx="384.95" cy="410.99" r="16.5"/>
<circle class="st0" cx="431.61" cy="410.99" r="16.5"/>
<circle class="st0" cx="478.28" cy="410.99" r="16.5"/>
<circle class="st0" cx="524.95" cy="410.99" r="16.5"/>
<circle class="st0" cx="571.61" cy="410.99" r="16.5"/>
<circle class="st0" cx="618.28" cy="410.99" r="16.5"/>
<circle class="st0" cx="664.95" cy="410.99" r="16.5"/>
<g>
	<polyline class="st0" points="57.75,464.26 287.32,464.26 349.05,464.26 710.95,464.26 	"/>
	<circle class="st0" cx="151.61" cy="464.2" r="16.5"/>
	<circle class="st0" cx="198.28" cy="464.2" r="16.5"/>
	<circle class="st0" cx="244.95" cy="464.2" r="16.5"/>
	<circle class="st0" cx="291.61" cy="464.2" r="16.5"/>
	<circle class="st0" cx="338.28" cy="464.2" r="16.5"/>
	<circle class="st0" cx="384.95" cy="464.2" r="16.5"/>
	<circle class="st0" cx="431.61" cy="464.2" r="16.5"/>
	<circle class="st0" cx="478.28" cy="464.2" r="16.5"/>
	<circle class="st0" cx="524.95" cy="464.2" r="16.5"/>
	<circle class="st0" cx="571.61" cy="464.2" r="16.5"/>
	<circle class="st0" cx="618.28" cy="464.2" r="16.5"/>
	<circle class="st0" cx="104.95" cy="464.2" r="16.5"/>
	<circle class="st0" cx="664.95" cy="464.2" r="16.5"/>
</g>
<g>
	<polyline class="st0" points="57.75,517.48 287.32,517.48 349.05,517.48 710.95,517.48 	"/>
	<circle class="st0" cx="151.61" cy="517.41" r="16.5"/>
	<circle class="st0" cx="198.28" cy="517.41" r="16.5"/>
	<circle class="st0" cx="244.95" cy="517.41" r="16.5"/>
	<circle class="st0" cx="291.61" cy="517.41" r="16.5"/>
	<circle class="st0" cx="338.28" cy="517.41" r="16.5"/>
	<circle class="st0" cx="384.95" cy="517.41" r="16.5"/>
	<circle class="st0" cx="431.61" cy="517.41" r="16.5"/>
	<circle class="st0" cx="478.28" cy="517.41" r="16.5"/>
	<circle class="st0" cx="524.95" cy="517.41" r="16.5"/>
	<circle class="st0" cx="571.61" cy="517.41" r="16.5"/>
	<circle class="st0" cx="618.28" cy="517.41" r="16.5"/>
	<circle class="st0" cx="104.95" cy="517.41" r="16.5"/>
	<circle class="st0" cx="664.95" cy="517.41" r="16.5"/>
</g>
<g>
	<polyline class="st0" points="57.45,570.69 287.01,570.69 348.75,570.69 710.64,570.69 	"/>
	<circle class="st0" cx="151.31" cy="570.62" r="16.5"/>
	<circle class="st0" cx="197.97" cy="570.62" r="16.5"/>
	<circle class="st0" cx="244.64" cy="570.62" r="16.5"/>
	<circle class="st0" cx="291.31" cy="570.62" r="16.5"/>
	<circle class="st0" cx="337.97" cy="570.62" r="16.5"/>
	<circle class="st0" cx="384.64" cy="570.62" r="16.5"/>
	<circle class="st0" cx="431.31" cy="570.62" r="16.5"/>
	<circle class="st0" cx="477.97" cy="570.62" r="16.5"/>
	<circle class="st0" cx="524.64" cy="570.62" r="16.5"/>
	<circle class="st0" cx="571.31" cy="570.62" r="16.5"/>
	<circle class="st0" cx="617.97" cy="570.62" r="16.5"/>
	<circle class="st0" cx="104.64" cy="570.62" r="16.5"/>
	<circle class="st0" cx="664.64" cy="570.62" r="16.5"/>
</g>
<g>
	<polyline class="st0" points="58.45,623.9 288.01,623.9 349.75,623.9 711.64,623.9 	"/>
	<circle class="st0" cx="152.31" cy="623.84" r="16.5"/>
	<circle class="st0" cx="198.97" cy="623.84" r="16.5"/>
	<circle class="st0" cx="245.64" cy="623.84" r="16.5"/>
	<circle class="st0" cx="292.31" cy="623.84" r="16.5"/>
	<circle class="st0" cx="338.97" cy="623.84" r="16.5"/>
	<circle class="st0" cx="385.64" cy="623.84" r="16.5"/>
	<circle class="st0" cx="432.31" cy="623.84" r="16.5"/>
	<circle class="st0" cx="478.97" cy="623.84" r="16.5"/>
	<circle class="st0" cx="525.64" cy="623.84" r="16.5"/>
	<circle class="st0" cx="572.31" cy="623.84" r="16.5"/>
	<circle class="st0" cx="618.97" cy="623.84" r="16.5"/>
	<circle class="st0" cx="105.64" cy="623.84" r="16.5"/>
	<circle class="st0" cx="665.64" cy="623.84" r="16.5"/>
</g>
<g>
	<polyline class="st0" points="57.01,677.11 286.58,677.11 348.32,677.11 710.21,677.11 	"/>
	<circle class="st0" cx="150.87" cy="677.05" r="16.5"/>
	<circle class="st0" cx="197.54" cy="677.05" r="16.5"/>
	<circle class="st0" cx="244.21" cy="677.05" r="16.5"/>
	<circle class="st0" cx="290.87" cy="677.05" r="16.5"/>
	<circle class="st0" cx="337.54" cy="677.05" r="16.5"/>
	<circle class="st0" cx="384.21" cy="677.05" r="16.5"/>
	<circle class="st0" cx="430.87" cy="677.05" r="16.5"/>
	<circle class="st0" cx="477.54" cy="677.05" r="16.5"/>
	<circle class="st0" cx="524.21" cy="677.05" r="16.5"/>
	<circle class="st0" cx="570.87" cy="677.05" r="16.5"/>
	<circle class="st0" cx="617.54" cy="677.05" r="16.5"/>
	<circle class="st0" cx="104.21" cy="677.05" r="16.5"/>
	<circle class="st0" cx="664.21" cy="677.05" r="16.5"/>
</g>
<g>
	<polyline class="st0" points="58.01,730.33 287.58,730.33 349.32,730.33 711.21,730.33 	"/>
	<circle class="st0" cx="151.87" cy="730.26" r="16.5"/>
	<circle class="st0" cx="198.54" cy="730.26" r="16.5"/>
	<circle class="st0" cx="245.21" cy="730.26" r="16.5"/>
	<circle class="st0" cx="291.87" cy="730.26" r="16.5"/>
	<circle class="st0" cx="338.54" cy="730.26" r="16.5"/>
	<circle class="st0" cx="385.21" cy="730.26" r="16.5"/>
	<circle class="st0" cx="431.87" cy="730.26" r="16.5"/>
	<circle class="st0" cx="478.54" cy="730.26" r="16.5"/>
	<circle class="st0" cx="525.21" cy="730.26" r="16.5"/>
	<circle class="st0" cx="571.87" cy="730.26" r="16.5"/>
	<circle class="st0" cx="618.54" cy="730.26" r="16.5"/>
	<circle class="st0" cx="105.21" cy="730.26" r="16.5"/>
	<circle class="st0" cx="665.21" cy="730.26" r="16.5"/>
</g>
</svg>
